
<svg width="24" height="24" viewBox="0 0 245 240" fill="none" xmlns="http://www.w3.org/2000/svg">
<path fill="#fff" d="M104.4 120.9l-8.3-7.9c-1.5-1.4-1.5-3.6 0-4.9l8.3-7.9c1.6-1.4 4-1.2 5.5.3l8 7.9c1.5 1.4 1.5 3.6 0 4.9l-8 7.9c-1.5 1.5-4 1.6-5.5.2zM140.5 120.9l-8.3-7.9c-1.5-1.4-1.5-3.6 0-4.9l8.3-7.9c1.5-1.4 4-1.2 5.4.3l8 7.9c1.6 1.4 1.6 3.6 0 4.9l-8 7.9c-1.4 1.5-3.9 1.6-5.4.2z"/>
<path fill="#fff" d="M190 13H56a43 43 0 0 0-43 43v124a43 43 0 0 0 43 43h104l-5-18 12 11 11 10 19 16V56a43 43 0 0 0-43-43z"/>
</svg>
